<svg width="24" height="24" viewBox="0 0 24 24" fill="none" xmlns="http://www.w3.org/2000/svg">
<path d="M12 0L22.3923 6V18L12 24L1.6077 18V6L12 0Z" fill="#A3ECFB"/>
<path d="M22.393 6V18L12.0007 24L1.6084 18V6L12.0007 0V12L22.393 6Z" fill="#6CC8F9"/>
<path d="M22.393 18L12.0007 24L1.6084 18V6L12.0007 0V12L22.393 18Z" fill="#30ACEB"/>
<path d="M12.0007 24L1.6084 18V6L12.0007 0V12V24Z" fill="#0C8BF6"/>
<path d="M1.6084 18V6L12.0007 0V12L1.6084 18Z" fill="#369CE5"/>
<path d="M12.0007 0L1.6084 6L12.0007 12V0Z" fill="#77C5F3"/>
<path d="M12.0002 5.19971L17.8892 8.59971V15.3997L12.0002 18.7997L6.11122 15.3997V8.59971L12.0002 5.19971Z" fill="#7ED0F6"/>
<g style="mix-blend-mode:multiply">
<path d="M12 0L22.3923 6V18L12 24L1.6077 18V6L12 0Z" fill="#A3ECFB"/>
<path d="M22.393 6V18L12.0007 24L1.6084 18V6L12.0007 0V12L22.393 6Z" fill="#6CC8F9"/>
<path d="M22.393 18L12.0007 24L1.6084 18V6L12.0007 0V12L22.393 18Z" fill="#30ACEB"/>
<path d="M12.0007 24L1.6084 18V6L12.0007 0V12V24Z" fill="#0C8BF6"/>
<path d="M1.6084 18V6L12.0007 0V12L1.6084 18Z" fill="#369CE5"/>
<path d="M12.0007 0L1.6084 6L12.0007 12V0Z" fill="#77C5F3"/>
<path d="M12.0002 5.19971L17.8892 8.59971V15.3997L12.0002 18.7997L6.11122 15.3997V8.59971L12.0002 5.19971Z" fill="#7ED0F6"/>
</g>
</svg>
