<svg width="24" height="24" viewBox="0 0 24 24" fill="none" xmlns="http://www.w3.org/2000/svg">
<path d="M12 24L24 12H12V24Z" fill="url(#paint0_linear_13_2519)"/>
<path d="M0 12L12 24V12H0Z" fill="url(#paint1_linear_13_2519)"/>
<path d="M24 12L12 0V12H24Z" fill="url(#paint2_linear_13_2519)"/>
<path d="M12 0L0 12H12V0Z" fill="url(#paint3_linear_13_2519)"/>
<g style="mix-blend-mode:multiply" opacity="0.79">
<path d="M12 24L24 12H12V24Z" fill="url(#paint4_linear_13_2519)"/>
<path d="M0 12L12 24V12H0Z" fill="url(#paint5_linear_13_2519)"/>
<path d="M24 12L12 0V12H24Z" fill="url(#paint6_linear_13_2519)"/>
<path d="M12 0L0 12H12V0Z" fill="url(#paint7_linear_13_2519)"/>
</g>
<defs>
<linearGradient id="paint0_linear_13_2519" x1="12" y1="12" x2="49.5" y2="49.5" gradientUnits="userSpaceOnUse">
<stop stop-color="#888888"/>
<stop offset="1" stop-color="#575757"/>
</linearGradient>
<linearGradient id="paint1_linear_13_2519" x1="12" y1="12" x2="-33.75" y2="57.75" gradientUnits="userSpaceOnUse">
<stop stop-color="#BBBBBB"/>
<stop offset="1" stop-color="#B6B6B6"/>
</linearGradient>
<linearGradient id="paint2_linear_13_2519" x1="12" y1="12" x2="18" y2="6" gradientUnits="userSpaceOnUse">
<stop stop-color="#A6A6A6"/>
<stop offset="1" stop-color="#DFDFDF"/>
</linearGradient>
<linearGradient id="paint3_linear_13_2519" x1="12" y1="12" x2="0" y2="0" gradientUnits="userSpaceOnUse">
<stop stop-color="#F3F3F3"/>
<stop offset="1" stop-color="#C6C6C6"/>
</linearGradient>
<linearGradient id="paint4_linear_13_2519" x1="12" y1="12" x2="49.5" y2="49.5" gradientUnits="userSpaceOnUse">
<stop stop-color="#888888"/>
<stop offset="1" stop-color="#575757"/>
</linearGradient>
<linearGradient id="paint5_linear_13_2519" x1="12" y1="12" x2="-33.75" y2="57.75" gradientUnits="userSpaceOnUse">
<stop stop-color="#BBBBBB"/>
<stop offset="1" stop-color="#B6B6B6"/>
</linearGradient>
<linearGradient id="paint6_linear_13_2519" x1="12" y1="12" x2="18" y2="6" gradientUnits="userSpaceOnUse">
<stop stop-color="#A6A6A6"/>
<stop offset="1" stop-color="#DFDFDF"/>
</linearGradient>
<linearGradient id="paint7_linear_13_2519" x1="12" y1="12" x2="0" y2="0" gradientUnits="userSpaceOnUse">
<stop stop-color="#F3F3F3"/>
<stop offset="1" stop-color="#C6C6C6"/>
</linearGradient>
</defs>
</svg>
