<svg width="30" height="24" viewBox="0 0 30 24" fill="none" xmlns="http://www.w3.org/2000/svg">
<path d="M0 3C0 1.35 1.35 0 3 0H25.5C25.8978 0 26.2794 0.158035 26.5607 0.43934C26.842 0.720644 27 1.10218 27 1.5V3H3V4.5H28.5C28.8978 4.5 29.2794 4.65804 29.5607 4.93934C29.842 5.22064 30 5.60218 30 6V21C30 21.7956 29.6839 22.5587 29.1213 23.1213C28.5587 23.6839 27.7956 24 27 24H3C2.20435 24 1.44129 23.6839 0.87868 23.1213C0.316071 22.5587 0 21.7956 0 21V3ZM24.75 16.5C25.3467 16.5 25.919 16.2629 26.341 15.841C26.7629 15.419 27 14.8467 27 14.25C27 13.6533 26.7629 13.081 26.341 12.659C25.919 12.2371 25.3467 12 24.75 12C24.1533 12 23.581 12.2371 23.159 12.659C22.7371 13.081 22.5 13.6533 22.5 14.25C22.5 14.8467 22.7371 15.419 23.159 15.841C23.581 16.2629 24.1533 16.5 24.75 16.5Z" fill="white"/>
</svg>
