<svg width="24" height="24" viewBox="0 0 24 24" fill="none" xmlns="http://www.w3.org/2000/svg">
<path d="M12 24L3.51473 20.4853L0 12L3.51473 3.51473L12 0L20.4853 3.51473L24 12L20.4853 20.4853L12 24Z" fill="#297EE3"/>
<path d="M11.9995 23.1455L4.1188 19.8812L0.854492 12.0005L4.1188 4.11978L11.9995 0.855469L19.8803 4.11978L23.1446 12.0005L19.8803 19.8812L11.9995 23.1455Z" fill="#47EEF6"/>
<path d="M19.8807 4.11978L12 0.855469V12.0005L19.8807 4.11978Z" fill="#60FFE2"/>
<path d="M4.11914 4.11978L11.9999 0.855469V12.0005L4.11914 4.11978Z" fill="#0BE9DB"/>
<path d="M19.8807 19.8807L23.145 12H12L19.8807 19.8807Z" fill="#17B6E9"/>
<path d="M12 23.145L19.8807 19.8807L12 12V23.145Z" fill="#4798F6"/>
<path d="M0.854492 11.9999L4.1188 4.11914L11.9995 11.9999H0.854492Z" fill="#0BDBE9"/>
<path d="M4.1188 19.8807L0.854492 12H11.9995L4.1188 19.8807Z" fill="#24D4EC"/>
<path d="M11.9999 23.145L4.11914 19.8807L11.9999 12V23.145Z" fill="#47ADF6"/>
<path d="M11.9998 21.0079L5.63047 18.3697L2.99219 12.0003L5.63047 5.63096L11.9998 2.99268L18.3692 5.63096L21.0075 12.0003L18.3692 18.3697L11.9998 21.0079Z" fill="url(#paint0_linear_13_2414)"/>
<path d="M12.7455 16.9772V15.5464H14.1762C14.5637 15.5464 14.8991 15.4086 15.1822 15.1329C15.4654 14.8497 15.607 14.5106 15.607 14.1157C15.607 13.7282 15.4654 13.3928 15.1822 13.1097C14.8991 12.8265 14.5637 12.6849 14.1762 12.6849V11.2542C14.5637 11.2542 14.8991 11.1163 15.1822 10.8406C15.4654 10.5574 15.607 10.2184 15.607 9.82342C15.607 9.43592 15.4654 9.10059 15.1822 8.81742C14.8991 8.53425 14.5637 8.39267 14.1762 8.39267C13.7813 8.39267 13.4422 8.53425 13.159 8.81742C12.8833 9.10059 12.7455 9.43592 12.7455 9.82342V12.6849C12.7455 13.4748 12.4623 14.1492 11.896 14.7081C11.3371 15.267 10.6664 15.5464 9.88397 15.5464H7.02246V6.96191H8.45321V14.1157H9.88397C10.2715 14.1157 10.6068 13.9778 10.89 13.7021C11.1731 13.4189 11.3147 13.0799 11.3147 12.6849V9.82342C11.3147 9.04098 11.5942 8.37031 12.153 7.81142C12.7119 7.24508 13.3863 6.96191 14.1762 6.96191C14.9587 6.96191 15.6293 7.24508 16.1882 7.81142C16.7546 8.37031 17.0377 9.04098 17.0377 9.82342C17.0377 10.6133 16.7546 11.2877 16.1882 11.8466C16.151 11.8913 16.11 11.9323 16.0653 11.9695C16.11 12.0143 16.151 12.059 16.1882 12.1037C16.7546 12.6626 17.0377 13.3332 17.0377 14.1157C17.0377 14.9056 16.7546 15.5762 16.1882 16.1277C15.6293 16.694 14.9587 16.9772 14.1762 16.9772H12.7455Z" fill="white"/>
<defs>
<linearGradient id="paint0_linear_13_2414" x1="11.9851" y1="2.99268" x2="11.9851" y2="21.0079" gradientUnits="userSpaceOnUse">
<stop offset="0.434452" stop-color="#09D2C6"/>
<stop offset="1" stop-color="#54ADFF"/>
</linearGradient>
</defs>
</svg>
