<svg width="24" height="24" viewBox="0 0 24 24" fill="none" xmlns="http://www.w3.org/2000/svg">
<mask id="mask0_13_2338" style="mask-type:alpha" maskUnits="userSpaceOnUse" x="0" y="0" width="24" height="24">
<circle cx="12" cy="12" r="12" fill="#D9D9D9"/>
</mask>
<g mask="url(#mask0_13_2338)">
<path d="M12 -1.62402L21.6337 2.36637L25.6241 12L21.6337 21.6337L12 25.6241L2.36637 21.6337L-1.62402 12L2.36637 2.36637L12 -1.62402Z" fill="#71E0E7"/>
<path d="M21.6337 2.36637L25.6241 12L21.6337 21.6337L12 25.6241L2.36637 21.6337L-1.62402 12L2.36637 2.36637L12 -1.62402V12L21.6337 2.36637Z" fill="#05DCBA"/>
<path d="M25.6241 12L21.6337 21.6337L12 25.6241L2.36637 21.6337L-1.62402 12L2.36637 2.36637L12 -1.62402V12H25.6241Z" fill="#01C2A4"/>
<path d="M21.6337 21.6337L12 25.6241L2.36637 21.6337L-1.62402 12L2.36637 2.36637L12 -1.62402V12L21.6337 21.6337Z" fill="#00C78D"/>
<path d="M12 25.6241L2.36637 21.6337L-1.62402 12L2.36637 2.36637L12 -1.62402V12V25.6241Z" fill="#12A168"/>
<path d="M2.36637 21.6337L-1.62402 12L2.36637 2.36637L12 -1.62402V12L2.36637 21.6337Z" fill="#18B570"/>
<path d="M-1.62402 12L2.36637 2.36637L12 -1.62402V12H-1.62402Z" fill="#18DA84"/>
<path d="M11.9999 -1.62402L2.36621 2.36637L11.9999 12V-1.62402Z" fill="#09CB97"/>
<path d="M12 5.11914L16.8655 7.13449L18.8808 12L16.8655 16.8655L12 18.8808L7.13449 16.8655L5.11914 12L7.13449 7.13449L12 5.11914Z" fill="#05D6AE"/>
<g style="mix-blend-mode:multiply" opacity="0.5">
<path d="M12 -1.62402L21.6337 2.36637L25.6241 12L21.6337 21.6337L12 25.6241L2.36637 21.6337L-1.62402 12L2.36637 2.36637L12 -1.62402Z" fill="#71E0E7"/>
<path d="M21.6337 2.36637L25.6241 12L21.6337 21.6337L12 25.6241L2.36637 21.6337L-1.62402 12L2.36637 2.36637L12 -1.62402V12L21.6337 2.36637Z" fill="#05DCBA"/>
<path d="M25.6241 12L21.6337 21.6337L12 25.6241L2.36637 21.6337L-1.62402 12L2.36637 2.36637L12 -1.62402V12H25.6241Z" fill="#01C2A4"/>
<path d="M21.6337 21.6337L12 25.6241L2.36637 21.6337L-1.62402 12L2.36637 2.36637L12 -1.62402V12L21.6337 21.6337Z" fill="#00C78D"/>
<path d="M12 25.6241L2.36637 21.6337L-1.62402 12L2.36637 2.36637L12 -1.62402V12V25.6241Z" fill="#12A168"/>
<path d="M2.36637 21.6337L-1.62402 12L2.36637 2.36637L12 -1.62402V12L2.36637 21.6337Z" fill="#18B570"/>
<path d="M-1.62402 12L2.36637 2.36637L12 -1.62402V12H-1.62402Z" fill="#18DA84"/>
<path d="M11.9999 -1.62402L2.36621 2.36637L11.9999 12V-1.62402Z" fill="#09CB97"/>
<path d="M12 5.11914L16.8655 7.13449L18.8808 12L16.8655 16.8655L12 18.8808L7.13449 16.8655L5.11914 12L7.13449 7.13449L12 5.11914Z" fill="#05D6AE"/>
</g>
</g>
</svg>
