<svg width="18" height="18" viewBox="0 0 18 18" fill="none" xmlns="http://www.w3.org/2000/svg">
<path d="M6.37511 11.6096C7.12072 12.3552 8.27844 11.1984 7.53145 10.4533L5.48566 8.4075C4.74005 7.6619 3.58279 8.8187 4.32932 9.56384L6.37511 11.6096Z" fill="white"/>
<path d="M13.6711 9.56384L11.6235 11.6096C10.8774 12.3557 9.72063 11.198 10.469 10.4533L12.5148 8.40751C13.2599 7.66097 14.4167 8.81824 13.6711 9.56384Z" fill="white"/>
<path fill-rule="evenodd" clip-rule="evenodd" d="M7.43293 0.124897C4.91258 0.545342 2.65587 2.12397 1.32146 4.29002C0.257632 6.01759 0 7.90936 0 9.89224V14.7835C0.00367972 14.9992 0.0909405 15.2051 0.243398 15.3577C0.395855 15.5104 0.601605 15.5978 0.817299 15.6018H2.40796V17.1679C2.41164 17.3838 2.49903 17.5898 2.65169 17.7424C2.80434 17.8951 3.01032 17.9825 3.22618 17.9861H14.692C14.9078 17.9825 15.1138 17.8951 15.2664 17.7424C15.4191 17.5898 15.5065 17.3838 15.5102 17.1679V15.5893H17.1818C17.3976 15.5856 17.6036 15.4982 17.7563 15.3456C17.9089 15.1929 17.9963 14.9869 18 14.7711V8.98567C17.9265 3.44266 12.9218 -0.790459 7.43293 0.124897ZM1.8802 7.09668C3.10361 2.48799 8.54995 0.204916 12.685 2.6101C14.9667 3.93526 16.3275 6.36264 16.3636 8.98614V13.9528H14.692C14.4761 13.9565 14.2701 14.0439 14.1175 14.1966C13.9648 14.3492 13.8774 14.5552 13.8737 14.7711V16.3497H4.0444V14.7835C4.04083 14.5676 3.9535 14.3615 3.80083 14.2088C3.64816 14.056 3.44211 13.9686 3.22618 13.9649H1.63552V11.2452C1.63552 10.9829 1.63149 10.7184 1.62744 10.4528C1.61029 9.32758 1.59282 8.18186 1.8802 7.09668Z" fill="white"/>
</svg>
