<?xml version="1.0" standalone="no"?>
<!DOCTYPE svg PUBLIC "-//W3C//DTD SVG 20010904//EN"
 "http://www.w3.org/TR/2001/REC-SVG-20010904/DTD/svg10.dtd">
<svg version="1.0" xmlns="http://www.w3.org/2000/svg"
 width="70.000000pt" height="80.000000pt" viewBox="0 0 70.000000 80.000000"
 preserveAspectRatio="xMidYMid meet">

<g transform="translate(0.000000,80.000000) scale(0.100000,-0.100000)"
fill="#000000" stroke="none">
<path d="M381 737 c-7 -10 -23 -17 -35 -17 -13 0 -40 -19 -64 -43 -43 -44 -43
-44 -49 -135 -7 -104 0 -112 44 -57 17 21 37 35 51 35 12 0 22 -3 22 -8 0 -4
-74 -81 -165 -172 l-165 -165 0 -77 0 -78 48 0 47 0 175 175 c96 96 183 175
192 175 22 0 23 -13 3 -30 -10 -8 -15 -30 -15 -62 l0 -50 53 7 c43 6 59 14 95
49 39 38 43 47 48 107 l7 66 -41 7 c-75 12 -88 74 -21 99 17 7 29 19 29 29 0
11 8 18 20 18 19 0 21 5 18 63 -3 62 -3 62 -35 65 -28 3 -33 0 -33 -17 0 -14
-6 -21 -20 -21 -11 0 -20 -6 -20 -13 0 -22 -45 -57 -81 -63 -50 -8 -78 18 -87
80 -6 43 -9 47 -21 33z m279 -36 c0 -25 -20 -38 -31 -20 -15 23 -10 39 11 39
13 0 20 -7 20 -19z m-275 -22 c4 -18 19 -43 34 -56 22 -20 33 -23 70 -18 45 5
91 36 91 62 0 7 9 13 20 13 15 0 20 -7 20 -25 0 -15 -6 -25 -14 -25 -8 0 -26
-14 -40 -31 -32 -38 -35 -88 -6 -114 17 -15 20 -31 20 -92 l0 -73 -29 0 c-16
0 -38 -3 -48 -7 -13 -4 -11 2 9 24 33 35 35 59 7 89 -17 18 -19 26 -10 42 13
25 15 82 2 82 -11 0 -21 -35 -21 -72 0 -16 -2 -28 -4 -28 -2 0 -10 -2 -18 -5
-10 -4 -13 4 -10 36 l4 41 -41 -4 c-35 -3 -40 -1 -35 14 6 20 -41 67 -68 68
-9 0 -25 -11 -36 -25 -28 -35 -33 -31 -25 18 4 29 17 54 42 80 45 47 77 49 86
6z m51 -216 c-6 -32 -33 -64 -169 -201 -143 -143 -166 -162 -194 -162 -30 0
-33 3 -33 31 0 27 23 55 152 191 84 88 161 163 171 167 10 4 32 8 49 9 30 2
30 2 24 -35z m210 -45 c-4 -18 -15 -42 -26 -53 -20 -19 -20 -19 -20 33 0 49 1
52 26 52 25 0 26 -2 20 -32z"/>
<path d="M428 563 c12 -2 30 -2 40 0 9 3 -1 5 -23 4 -22 0 -30 -2 -17 -4z"/>
<path d="M330 405 c0 -8 7 -15 15 -15 8 0 15 7 15 15 0 8 -7 15 -15 15 -8 0
-15 -7 -15 -15z"/>
</g>
</svg>
